# xmcd CD database file
#
# Track frame offsets:
#	150
#	20821
#	46748
#	66197
#	90524
#	119036
#	149704
#	171931
#	193319
#	214832
#	234327
#	253231
#	281368
#	296619
#	311164
#
# Disc length: 4439 seconds
#
# Revision: 0
# Processed by: cddbd v1.5.1PL0 Copyright (c) Steve Scherf et al.
# Submitted via: CDex 1.51
#
DISCID=f111550f
DTITLE=Logos - Symbiose, ou l'Harmonie avec son Environnement - The New Best Of
DYEAR=2004
DGENRE=New Age
TTITLE0=La Sagesse
TTITLE1=Le Maître
TTITLE2=La Chaussée des Géants
TTITLE3=La Fosse des Mariannes
TTITLE4=Le Labyrinthe
TTITLE5=Yellowstone
TTITLE6=La Création d'Echo
TTITLE7=Les Oiseaux des Arbres
TTITLE8=Le 5ème Soleil
TTITLE9=Eclypsia
TTITLE10=Sur Les Monts Traful
TTITLE11=Forêt Magique
TTITLE12=Danse de l'Ame
TTITLE13=Les Boucles de Naphtys
TTITLE14=Le Chant de l'Eau
EXTD=YEAR: 2004
EXTT0=
EXTT1=
EXTT2=
EXTT3=
EXTT4=
EXTT5=
EXTT6=
EXTT7=
EXTT8=
EXTT9=
EXTT10=
EXTT11=
EXTT12=
EXTT13=
EXTT14=
PLAYORDER=
